<?xml version="1.0" encoding="utf-8"?>
<!-- Generator: Adobe Illustrator 26.0.3, SVG Export Plug-In . SVG Version: 6.00 Build 0)  -->
<svg version="1.1" id="Layer_1" xmlns="http://www.w3.org/2000/svg" xmlns:xlink="http://www.w3.org/1999/xlink" x="0px" y="0px"
	 viewBox="0 0 256 256" enable-background="new 0 0 256 256" xml:space="preserve">
<g>
	<path fill="#222222" d="M75.96,141.49c1.66,0,3,1.34,3,3v64.72c0,1.66-1.34,3-3,3s-3-1.34-3-3v-64.72
		C72.96,142.84,74.3,141.49,75.96,141.49z"/>
	<path fill="#222222" d="M78.96,112.49c0,1.66-1.34,3-3,3s-3-1.34-3-3V46.79c0-1.66,1.34-3,3-3h104.09c1.66,0,3,1.34,3,3v162.43
		c0,1.66-1.34,3-3,3s-3-1.34-3-3V49.79H78.96V112.49z"/>
	<polygon fill="#222222" points="107.23,104.86 102.81,109.28 118.48,124.95 26.78,124.95 26.78,131.51 117.95,131.51 
		102.74,146.72 107.15,151.14 130.52,128 	"/>
</g>
</svg>
