<?xml version="1.0" encoding="utf-8"?>
<!-- Generator: Adobe Illustrator 22.0.1, SVG Export Plug-In . SVG Version: 6.00 Build 0)  -->
<svg version="1.1" id="Layer_1" xmlns="http://www.w3.org/2000/svg" xmlns:xlink="http://www.w3.org/1999/xlink" x="0px" y="0px"
	 viewBox="0 0 256 256" enable-background="new 0 0 256 256" xml:space="preserve">
<g>
	<path fill="#222222" d="M180.04,141.49c-1.66,0-3,1.34-3,3v64.72c0,1.66,1.34,3,3,3s3-1.34,3-3v-64.72
		C183.04,142.84,181.7,141.49,180.04,141.49z"/>
	<path fill="#222222" d="M177.04,112.49c0,1.66,1.34,3,3,3s3-1.34,3-3V46.79c0-1.66-1.34-3-3-3H75.96c-1.66,0-3,1.34-3,3v162.43
		c0,1.66,1.34,3,3,3s3-1.34,3-3V49.79h98.09V112.49z"/>
	<polygon fill="#222222" points="209.23,104.86 204.81,109.28 220.48,124.95 128.78,124.95 128.78,131.51 219.95,131.51 
		204.74,146.72 209.15,151.14 232.52,128 	"/>
</g>
</svg>
